<?xml version="1.0" encoding="utf-8"?>
<!-- Generator: Adobe Illustrator 18.1.1, SVG Export Plug-In . SVG Version: 6.00 Build 0)  -->
<svg version="1.1" id="Warstwa_1" xmlns="http://www.w3.org/2000/svg" xmlns:xlink="http://www.w3.org/1999/xlink" x="0px" y="0px"
	 viewBox="0 0 252 53" enable-background="new 0 0 252 53" xml:space="preserve">
<g>
	<polygon fill="#929497" points="160.3,45.9 160.3,48.9 157.5,48.9 157.5,45.9 156.8,45.9 156.8,52.9 157.5,52.9 157.5,49.6 
		160.3,49.6 160.3,52.9 161,52.9 161,45.9 	"/>
	<rect x="162.2" y="45.9" fill="#929497" width="0.7" height="7.1"/>
	<rect x="163.9" y="50.1" fill="#929497" width="2.1" height="0.6"/>
	<g>
		<defs>
			<rect id="SVGID_1_" x="0.7" width="250.5" height="53"/>
		</defs>
		<clipPath id="SVGID_2_">
			<use xlink:href="#SVGID_1_"  overflow="visible"/>
		</clipPath>
		<path clip-path="url(#SVGID_2_)" fill="#929497" d="M170.8,50.5v1c0,0.5-0.1,0.9-0.4,1.2c-0.3,0.2-0.7,0.4-1.3,0.4h-0.6
			c-0.6,0-1.1-0.1-1.3-0.4c-0.2-0.3-0.4-0.8-0.4-1.6v-0.4h0.7v0.6c0,0.4,0.1,0.7,0.2,0.9c0.1,0.2,0.4,0.2,0.8,0.2h0.7
			c0.3,0,0.6-0.1,0.7-0.2c0.1-0.1,0.2-0.4,0.2-0.7v-0.6c0-0.2,0-0.3,0-0.4c0-0.1,0-0.2-0.1-0.2c-0.1-0.2-0.5-0.3-1.2-0.5
			c-0.1,0-0.3,0-0.3-0.1c0,0-0.1,0-0.1,0c-0.5-0.1-0.7-0.2-0.9-0.2c-0.2-0.1-0.3-0.3-0.4-0.5c-0.1-0.2-0.1-0.4-0.1-0.7v-0.9
			c0-0.5,0.1-0.9,0.4-1.2c0.3-0.2,0.7-0.4,1.3-0.4h0.5c0.6,0,1.1,0.1,1.3,0.4c0.3,0.3,0.4,0.7,0.4,1.4v0.2h-0.7v-0.2
			c0-0.4-0.1-0.7-0.2-0.9c-0.1-0.2-0.4-0.2-0.8-0.2h-0.6c-0.3,0-0.6,0.1-0.7,0.2c-0.1,0.1-0.2,0.4-0.2,0.7v0.8c0,0.4,0.3,0.6,1,0.7
			c0.1,0,0.3,0,0.4,0.1c0.7,0.1,1.2,0.3,1.5,0.5C170.7,49.7,170.8,50,170.8,50.5"/>
		<path clip-path="url(#SVGID_2_)" fill="#929497" d="M175.8,48.4c0,0.7-0.1,1.1-0.4,1.4c-0.3,0.2-0.8,0.4-1.6,0.4h-1.2v2.7h-0.7
			v-7.1h1.9c0.8,0,1.3,0.1,1.6,0.4c0.3,0.2,0.4,0.7,0.4,1.4V48.4z M173.7,46.5h-1.1v3h1.1c0.6,0,0.9-0.1,1.1-0.2
			c0.2-0.1,0.2-0.4,0.2-0.7v-1.2c0-0.3-0.1-0.6-0.2-0.7C174.6,46.6,174.3,46.5,173.7,46.5"/>
		<polygon clip-path="url(#SVGID_2_)" fill="#929497" points="179.8,52.2 179.8,52.9 176.7,52.9 176.7,45.9 179.8,45.9 179.8,46.5 
			177.4,46.5 177.4,48.9 179.6,48.9 179.6,49.6 177.4,49.6 177.4,52.2 		"/>
		<path clip-path="url(#SVGID_2_)" fill="#929497" d="M184.5,50.5c0,0,0,0.1,0,0.2c0,0.1,0,0.1,0,0.3c0,0.7-0.1,1.2-0.4,1.5
			c-0.3,0.3-0.7,0.5-1.2,0.5h-0.7c-0.3,0-0.6-0.1-0.8-0.2c-0.2-0.1-0.4-0.3-0.5-0.5c-0.1-0.2-0.2-0.4-0.2-0.6c0-0.2-0.1-0.6-0.1-1
			v-0.2v-2.4c0-0.8,0.1-1.5,0.4-1.8c0.3-0.4,0.8-0.6,1.4-0.6h0.4c0.6,0,1.1,0.2,1.4,0.5c0.3,0.3,0.4,0.8,0.4,1.6c0,0.1,0,0.2,0,0.2
			c0,0,0,0.1,0,0.1h-0.8v-0.1c0-0.6-0.1-1-0.2-1.2c-0.2-0.2-0.4-0.3-0.8-0.3h-0.4c-0.4,0-0.7,0.1-0.8,0.3c-0.2,0.2-0.2,0.7-0.2,1.4
			v2.4c0,0.8,0.1,1.3,0.2,1.5c0.1,0.2,0.4,0.3,0.9,0.3h0.4c0.4,0,0.7-0.1,0.8-0.3c0.1-0.2,0.2-0.6,0.2-1.3v-0.2L184.5,50.5z"/>
		<path clip-path="url(#SVGID_2_)" fill="#929497" d="M188.5,50.5c0,0.8,0.1,1.3,0.2,1.5c0.1,0.2,0.4,0.3,0.9,0.3h0.6
			c0.4,0,0.7-0.1,0.8-0.3c0.1-0.2,0.2-0.7,0.2-1.5v-0.5H190v-0.7h2v1.4c0,0.5,0,0.8-0.1,1c0,0.2-0.1,0.4-0.2,0.6
			c-0.1,0.2-0.3,0.3-0.5,0.5c-0.2,0.1-0.5,0.2-0.8,0.2h-0.9c-0.3,0-0.6-0.1-0.8-0.2c-0.2-0.1-0.4-0.3-0.5-0.5
			c-0.1-0.2-0.2-0.4-0.2-0.6c0-0.2-0.1-0.6-0.1-1v-0.2v-2.4c0-0.8,0.1-1.5,0.4-1.8c0.3-0.4,0.8-0.6,1.4-0.6h0.5
			c0.6,0,1.1,0.2,1.4,0.5c0.3,0.3,0.4,0.8,0.4,1.5V48l-0.8,0c0-0.6-0.1-1-0.2-1.2c-0.2-0.2-0.4-0.3-0.8-0.3h-0.5
			c-0.4,0-0.7,0.1-0.8,0.3c-0.2,0.2-0.2,0.7-0.2,1.4V50.5z"/>
		<path clip-path="url(#SVGID_2_)" fill="#929497" d="M192.4,52.9l2-7.1h0.8l1.9,7.1h-0.8l-0.4-1.5h-2.4l-0.4,1.5H192.4z
			 M193.8,50.7h2.1l-1-3.9L193.8,50.7z"/>
		<path clip-path="url(#SVGID_2_)" fill="#929497" d="M201.6,50.5v1c0,0.5-0.1,0.9-0.4,1.2c-0.3,0.2-0.7,0.4-1.3,0.4h-0.6
			c-0.6,0-1.1-0.1-1.3-0.4c-0.2-0.3-0.4-0.8-0.4-1.6v-0.4h0.7v0.6c0,0.4,0.1,0.7,0.2,0.9c0.1,0.2,0.4,0.2,0.8,0.2h0.7
			c0.3,0,0.6-0.1,0.7-0.2c0.1-0.1,0.2-0.4,0.2-0.7v-0.6c0-0.2,0-0.3,0-0.4c0-0.1,0-0.2-0.1-0.2c-0.1-0.2-0.5-0.3-1.2-0.5
			c-0.1,0-0.3,0-0.3-0.1c0,0-0.1,0-0.1,0c-0.5-0.1-0.7-0.2-0.9-0.2c-0.2-0.1-0.3-0.3-0.4-0.5c-0.1-0.2-0.1-0.4-0.1-0.7v-0.9
			c0-0.5,0.1-0.9,0.4-1.2c0.3-0.2,0.7-0.4,1.3-0.4h0.5c0.6,0,1.1,0.1,1.3,0.4c0.3,0.3,0.4,0.7,0.4,1.4v0.2h-0.7v-0.2
			c0-0.4-0.1-0.7-0.2-0.9c-0.1-0.2-0.4-0.2-0.8-0.2h-0.6c-0.3,0-0.6,0.1-0.7,0.2c-0.1,0.1-0.2,0.4-0.2,0.7v0.8c0,0.4,0.3,0.6,1,0.7
			c0.1,0,0.3,0,0.4,0.1c0.7,0.1,1.2,0.3,1.5,0.5C201.5,49.7,201.6,50,201.6,50.5"/>
		<polygon clip-path="url(#SVGID_2_)" fill="#929497" points="206,52.9 206,46.6 204.5,46.6 204.5,45.9 208.2,45.9 208.2,46.6 
			206.7,46.6 206.7,52.9 		"/>
		<polygon clip-path="url(#SVGID_2_)" fill="#929497" points="212,52.2 212,52.9 208.9,52.9 208.9,45.9 212,45.9 212,46.5 
			209.6,46.5 209.6,48.9 211.9,48.9 211.9,49.6 209.6,49.6 209.6,52.2 		"/>
		<path clip-path="url(#SVGID_2_)" fill="#929497" d="M216.8,50.5c0,0,0,0.1,0,0.2c0,0.1,0,0.1,0,0.3c0,0.7-0.1,1.2-0.4,1.5
			c-0.3,0.3-0.7,0.5-1.2,0.5h-0.7c-0.3,0-0.6-0.1-0.8-0.2c-0.2-0.1-0.4-0.3-0.5-0.5c-0.1-0.2-0.2-0.4-0.2-0.6c0-0.2-0.1-0.6-0.1-1
			v-0.2v-2.4c0-0.8,0.1-1.5,0.4-1.8c0.3-0.4,0.8-0.6,1.4-0.6h0.4c0.6,0,1.1,0.2,1.4,0.5c0.3,0.3,0.4,0.8,0.4,1.6c0,0.1,0,0.2,0,0.2
			c0,0,0,0.1,0,0.1H216v-0.1c0-0.6-0.1-1-0.2-1.2c-0.2-0.2-0.4-0.3-0.8-0.3h-0.4c-0.4,0-0.7,0.1-0.8,0.3c-0.2,0.2-0.2,0.7-0.2,1.4
			v2.4c0,0.8,0.1,1.3,0.2,1.5c0.1,0.2,0.4,0.3,0.9,0.3h0.4c0.4,0,0.7-0.1,0.8-0.3c0.1-0.2,0.2-0.6,0.2-1.3v-0.2L216.8,50.5z"/>
		<polygon clip-path="url(#SVGID_2_)" fill="#929497" points="217.7,52.9 217.7,45.9 218.4,45.9 218.4,48.9 221.2,48.9 221.2,45.9 
			221.9,45.9 221.9,52.9 221.2,52.9 221.2,49.6 218.4,49.6 218.4,52.9 		"/>
		<polygon clip-path="url(#SVGID_2_)" fill="#929497" points="223,52.9 223,45.9 224.1,45.9 226.7,52.1 226.7,45.9 227.4,45.9 
			227.4,52.9 226.3,52.9 223.7,46.8 223.7,52.9 		"/>
		<path clip-path="url(#SVGID_2_)" fill="#929497" d="M230.9,45.8c0.6,0,1.1,0.2,1.4,0.6c0.3,0.4,0.4,1,0.4,1.8v2.5
			c0,0.8-0.1,1.5-0.4,1.8c-0.3,0.4-0.8,0.6-1.4,0.6h-0.6c-0.6,0-1.1-0.2-1.4-0.6c-0.3-0.4-0.4-1-0.4-1.8v-2.5c0-0.8,0.1-1.5,0.4-1.8
			c0.3-0.4,0.8-0.6,1.4-0.6H230.9z M230.8,46.5h-0.4c-0.4,0-0.8,0.1-0.9,0.3c-0.2,0.2-0.2,0.7-0.2,1.4v2.5c0,0.7,0.1,1.1,0.2,1.4
			c0.2,0.2,0.5,0.3,0.9,0.3h0.4c0.4,0,0.8-0.1,0.9-0.3c0.2-0.2,0.2-0.7,0.2-1.4v-2.5c0-0.7-0.1-1.1-0.2-1.4
			C231.6,46.6,231.3,46.5,230.8,46.5"/>
		<polygon clip-path="url(#SVGID_2_)" fill="#929497" points="233.8,52.9 233.8,45.9 234.5,45.9 234.5,52.2 236.6,52.2 236.6,52.9 
					"/>
		<path clip-path="url(#SVGID_2_)" fill="#929497" d="M239.5,45.8c0.6,0,1.1,0.2,1.4,0.6c0.3,0.4,0.4,1,0.4,1.8v2.5
			c0,0.8-0.1,1.5-0.4,1.8c-0.3,0.4-0.8,0.6-1.4,0.6h-0.6c-0.6,0-1.1-0.2-1.4-0.6c-0.3-0.4-0.4-1-0.4-1.8v-2.5c0-0.8,0.1-1.5,0.4-1.8
			c0.3-0.4,0.8-0.6,1.4-0.6H239.5z M239.4,46.5H239c-0.4,0-0.8,0.1-0.9,0.3c-0.2,0.2-0.2,0.7-0.2,1.4v2.5c0,0.7,0.1,1.1,0.2,1.4
			c0.2,0.2,0.5,0.3,0.9,0.3h0.4c0.4,0,0.8-0.1,0.9-0.3c0.2-0.2,0.2-0.7,0.2-1.4v-2.5c0-0.7-0.1-1.1-0.2-1.4
			C240.2,46.6,239.9,46.5,239.4,46.5"/>
		<path clip-path="url(#SVGID_2_)" fill="#929497" d="M243.1,50.5c0,0.8,0.1,1.3,0.2,1.5c0.1,0.2,0.4,0.3,0.9,0.3h0.6
			c0.4,0,0.7-0.1,0.8-0.3c0.1-0.2,0.2-0.7,0.2-1.5v-0.5h-1.2v-0.7h2v1.4c0,0.5,0,0.8-0.1,1c0,0.2-0.1,0.4-0.2,0.6
			c-0.1,0.2-0.3,0.3-0.5,0.5c-0.2,0.1-0.5,0.2-0.8,0.2H244c-0.3,0-0.6-0.1-0.8-0.2c-0.2-0.1-0.4-0.3-0.5-0.5
			c-0.1-0.2-0.2-0.4-0.2-0.6c0-0.2-0.1-0.6-0.1-1v-0.2v-2.4c0-0.8,0.1-1.5,0.4-1.8c0.3-0.4,0.8-0.6,1.4-0.6h0.5
			c0.6,0,1.1,0.2,1.4,0.5c0.3,0.3,0.4,0.8,0.4,1.5V48l-0.8,0c0-0.6-0.1-1-0.2-1.2c-0.2-0.2-0.4-0.3-0.8-0.3h-0.5
			c-0.4,0-0.7,0.1-0.8,0.3c-0.2,0.2-0.2,0.7-0.2,1.4V50.5z"/>
		<polygon clip-path="url(#SVGID_2_)" fill="#929497" points="248.8,52.9 248.8,50 246.9,45.9 247.7,45.9 249.1,49.3 250.6,45.9 
			251.3,45.9 249.5,50 249.5,52.9 		"/>
		<path clip-path="url(#SVGID_2_)" fill="#505354" d="M69.6,20.9c0.1-0.4,0.1-0.9,0.1-1.7c0-3.6-2.1-5.3-6.3-5.3
			c-1.1,0-2.1,0.1-3.1,0.4c-1,0.2-1.7,0.7-2.4,1.3c-0.6,0.6-0.9,1.4-0.9,2.4c0,1,0.3,1.8,0.9,2.3c0.6,0.6,1.3,1,2,1.2
			c0.7,0.2,1.9,0.5,3.5,0.9c2.6,0.6,4.6,1.2,6,1.6c1.4,0.5,2.7,1.2,3.8,2.4c1.2,1.1,1.9,2.6,2.3,4.6c0.1,0.7,0.2,1.4,0.2,2.2
			c0,2.1-0.5,4-1.5,5.5c-1,1.5-2.4,2.7-4.2,3.5c-1.8,0.8-3.8,1.2-6.1,1.3c-2.3,0-4.4-0.4-6.4-1.1c-2-0.8-3.6-2-4.8-3.8
			c-1.3-1.8-1.9-4.1-1.9-7c0.1-0.2,0.1-0.3,0.1-0.6h2.5c0,2.6,0.5,4.6,1.6,6.1c1.1,1.5,2.4,2.5,4,3.1c1.6,0.6,3.2,0.8,4.8,0.8
			c1.8,0,3.4-0.3,4.8-0.8c1.4-0.5,2.6-1.4,3.5-2.7c0.9-1.2,1.3-2.8,1.3-4.7c-0.1-1.5-0.4-2.8-1-3.8c-0.5-1-1.2-1.7-2.1-2.3
			c-0.9-0.5-1.9-1-3-1.3c-1.1-0.3-2.6-0.7-4.6-1.1c-1.9-0.4-3.3-0.8-4.4-1.1c-1-0.3-1.9-0.9-2.7-1.7c-0.8-0.8-1.2-1.9-1.2-3.3
			c0-4.3,2.9-6.5,8.7-6.5c2.7,0,4.9,0.6,6.5,1.9c1.6,1.3,2.4,3.3,2.4,6c0,0.3,0,0.7-0.1,1.3H69.6z M72.7,20.9
			c0.1-0.7,0.1-1.2,0.1-1.5c0-5.5-3.2-8.3-9.5-8.5h-0.6c-1.6,0-3.1,0.2-4.4,0.7c-1.3,0.5-2.4,1.3-3.2,2.4c-0.8,1.1-1.2,2.4-1.2,4
			c0,1.5,0.4,2.7,1.1,3.6c0.7,0.9,1.7,1.6,2.9,2c1.2,0.4,2.7,0.9,4.7,1.3c2.3,0.4,4,0.9,5.3,1.4c1.3,0.5,2.4,1.2,3.3,2.2
			c0.9,1,1.4,2.4,1.6,4.2c0,1.7-0.4,3-1.2,4.2c-0.8,1.1-1.9,1.9-3.2,2.5c-1.3,0.5-2.8,0.8-4.4,0.8c-2.5-0.1-4.8-0.7-6.8-1.9
			c-2-1.2-2.9-3.3-2.9-6.3c0-0.4,0-0.8,0-1h2.4c0,4.4,2.3,6.8,6.8,7.1c0.3,0,0.6,0,0.8,0.1c4.1-0.1,6.1-1.8,6.1-5.3
			c-0.1-1-0.4-1.8-0.8-2.5c-0.4-0.6-0.9-1.1-1.6-1.4c-0.6-0.3-1.5-0.6-2.6-0.9c-1.1-0.3-2.1-0.5-2.9-0.7c-2.2-0.5-3.8-0.8-4.7-1.1
			c-1-0.3-1.9-0.7-2.9-1.3c-1-0.6-1.8-1.4-2.4-2.5c-0.6-1.1-0.9-2.5-1-4.3c0-2.2,0.5-4,1.6-5.4c1.1-1.4,2.5-2.4,4.3-3.1
			c1.8-0.6,3.7-1,5.9-1c2.2,0,4.2,0.3,6,1c1.8,0.7,3.2,1.9,4.4,3.7c1.1,1.8,1.7,4.3,1.7,7.5H72.7z"/>
		<path clip-path="url(#SVGID_2_)" fill="#505354" d="M78.7,42.5h-2.4V9.3h2.4V42.5z M89.9,28.5h-7.2v-2.3h6.7
			c5.9,0,8.8-2.5,8.8-7.4c0-1.6-0.4-3-1.1-4.1c-0.8-1.1-1.8-1.9-3.1-2.4c-1.3-0.5-2.8-0.8-4.5-0.8h-7.6v30.9h-2.4V9.3h10.2
			c2,0,3.9,0.4,5.6,1c1.7,0.7,3,1.8,4,3.2c1,1.4,1.5,3.2,1.5,5.3c0,1.4-0.3,2.8-0.8,4c-0.5,1.2-1.2,2.2-2.2,3
			c-1,0.8-2.1,1.5-3.4,1.9C92.9,28.3,91.5,28.5,89.9,28.5 M89.4,25.4h-6.6v-2.3h6.4c1.9,0,3.3-0.3,4.4-0.9c1.1-0.6,1.6-1.8,1.6-3.5
			c0-1.5-0.5-2.5-1.6-3.2c-1.1-0.7-2.5-1-4.3-1h-6.4v-2.3h6.3c2.5,0,4.6,0.5,6,1.5c1.5,1,2.2,2.7,2.2,5c0,2.3-0.7,3.9-2,5
			C94.1,24.9,92.1,25.4,89.4,25.4"/>
		<path clip-path="url(#SVGID_2_)" fill="#505354" d="M109.8,9.3l12.8,33.2H120l-12-31.7L96.3,42.5h-2.6l12.6-33.2H109.8z M108,13.1
			l11.2,29.4h-2.6l-2.7-7.2H103l0.8-2.3h9.3L108,19.4l-8.2,23.1h-2.6L108,13.1z"/>
		<path clip-path="url(#SVGID_2_)" fill="#505354" d="M144.6,39.1l-18.4-28.6v32.1h-2.5V9.3h4.3l14.1,21.6V9.3h2.4V39.1z
			 M143.1,42.5l-13.8-21.4v21.4h-2.4V13.1l18.4,28.4V9.3h2.5v33.2H143.1z"/>
		<path clip-path="url(#SVGID_2_)" fill="#EC1C24" d="M223.6,21.1l-0.6-1.3c-0.7-1.9-1.7-3.4-3-4.8c-1.3-1.3-2.8-2.3-4.5-3
			c-1.7-0.7-3.5-1-5.4-1c-2,0-3.8,0.4-5.5,1.1c-1.7,0.7-3.1,1.8-4.3,3.1s-2.1,2.9-2.8,4.8c-0.6,1.8-1,3.8-1,6c0,1.9,0.3,3.8,0.9,5.5
			c0.6,1.8,1.4,3.4,2.6,4.8c1.1,1.4,2.6,2.5,4.3,3.4c1.7,0.8,3.6,1.2,5.7,1.3c0,0,0.1-0.1,0.1-0.1c0,0,0.1,0,0.1,0
			c6.1,0,10.4-2.9,12.8-8.8l0.5-1.1h2.5l-0.8,1.9c-0.8,2-1.9,3.7-3.4,5.3c-1.5,1.6-3.3,2.8-5.3,3.6c-2,0.9-4.1,1.3-6.4,1.3
			c-2.4,0-4.6-0.4-6.6-1.2c-2-0.8-3.7-2-5.1-3.6c-1.4-1.5-2.5-3.4-3.2-5.5c-0.7-2.1-1.1-4.5-1.1-7.1c0-3.3,0.8-6.3,2.2-8.8
			c1.4-2.6,3.3-4.5,5.7-5.9c2.4-1.4,5.1-2.1,8-2.1c1.8,0,3.5,0.3,5.2,0.8c1.7,0.5,3.2,1.3,4.7,2.3c1.4,1,2.6,2.2,3.6,3.6
			c1,1.4,1.7,2.9,2.1,4.5l0.3,1.2H223.6z M220.2,21.1l-0.5-1.1c-0.6-1.2-1.3-2.3-2.3-3.2c-1-0.9-2.1-1.6-3.4-2
			c-1.3-0.5-2.6-0.7-3.9-0.7c-2.1,0-4,0.5-5.5,1.5c-1.5,1-2.7,2.3-3.5,4.1c-0.8,1.8-1.2,3.8-1.2,6.1c0,1.8,0.3,3.5,0.8,5
			c0.5,1.5,1.2,2.7,2.2,3.8c0.9,1,2.1,1.8,3.4,2.4c1.3,0.5,2.8,0.8,4.4,0.9c1.2,0,2.4-0.2,3.6-0.7c1.1-0.4,2.2-1.1,3.1-2
			c0.9-0.9,1.7-1.9,2.3-3.1l0.6-1.2h2.5l-0.6,1.4c-0.6,1.3-1.3,2.5-2.1,3.4c-0.8,1-1.7,1.8-2.7,2.4c-1,0.7-2.1,1.1-3.2,1.5
			c-1.1,0.3-2.3,0.5-3.6,0.5c-2.1,0-4-0.4-5.6-1.1c-1.6-0.7-3-1.7-4.1-3.1c-1.1-1.3-1.9-2.8-2.4-4.5c-0.5-1.7-0.8-3.5-0.8-5.4
			c0-2.7,0.5-5.2,1.5-7.3c1-2.1,2.4-3.8,4.4-5.1c1.9-1.2,4.2-1.9,6.8-1.9c1.4,0,3,0.3,4.6,1c1.7,0.6,3.1,1.5,4.5,2.7
			c1.3,1.2,2.3,2.5,2.8,4l0.6,1.5H220.2z"/>
		<path clip-path="url(#SVGID_2_)" fill="#EC1C24" d="M228.8,42.5h-2.4V9.3h2.4V42.5z M247.8,25.1h-18.1V9.3h2.4v13.4h13.3V9.3h2.4
			V25.1z M229.7,25.7h18.1v16.8h-2.4V28.2H232v14.3h-2.4V25.7z M248.5,9.3h2.4v33.2h-2.4V9.3z"/>
		<polygon clip-path="url(#SVGID_2_)" fill="#EC1C24" points="174.1,12.4 160.2,12.4 160.2,42.5 162.6,42.5 162.6,14.8 171.7,14.8 
			171.7,42.5 193.9,42.5 193.9,40.1 174.1,40.1 		"/>
		<polygon clip-path="url(#SVGID_2_)" fill="#EC1C24" points="147.8,12.4 147.8,14.8 156.9,14.8 156.9,42.5 159.4,42.5 159.4,12.4 
					"/>
		<polygon clip-path="url(#SVGID_2_)" fill="#EC1C24" points="174.9,39.4 193.9,39.4 193.9,37 177.4,37 177.4,28.4 193.9,28.4 
			193.9,26 174.9,26 		"/>
		<polygon clip-path="url(#SVGID_2_)" fill="#EC1C24" points="193.9,12.4 174.9,12.4 174.9,25.2 193.9,25.2 193.9,22.9 177.4,22.9 
			177.4,14.8 193.9,14.8 193.9,12.3 193.9,12.3 		"/>
		<polygon clip-path="url(#SVGID_2_)" fill="#EC1C24" points="171.8,9.3 171.7,9.3 147.8,9.3 147.8,11.5 193.9,11.5 193.9,11.5 
			193.9,11.5 193.9,9.3 		"/>
		<polygon clip-path="url(#SVGID_2_)" fill="#BBBDBF" points="25.3,18.5 20.1,22 15,18.5 15,11.6 20.1,8.1 25.3,11.6 		"/>
		<polygon clip-path="url(#SVGID_2_)" fill="#BBBDBF" points="25.3,39.9 20.1,43.4 15,39.9 15,33 20.1,29.5 25.3,33 		"/>
		<polygon clip-path="url(#SVGID_2_)" fill="#BBBDBF" points="11.1,29.5 5.9,33 0.7,29.5 0.7,22.6 5.9,19.1 11.1,22.6 		"/>
		<polygon clip-path="url(#SVGID_2_)" fill="#EC1C24" points="38.3,29.7 33.2,33.2 28,29.7 28,22.8 33.2,19.3 38.3,22.8 		"/>
		<polygon clip-path="url(#SVGID_2_)" fill="#EC1C24" points="11.1,10.5 5.9,13.9 0.7,10.5 0.7,3.5 5.9,0 11.1,3.5 		"/>
		<polygon clip-path="url(#SVGID_2_)" fill="#EC1C24" points="11.1,48.6 5.9,52.1 0.7,48.6 0.7,41.6 5.9,38.1 11.1,41.6 		"/>
	</g>
</g>
</svg>
