<?xml version="1.0" encoding="utf-8"?>
<!-- Generator: Adobe Illustrator 18.1.1, SVG Export Plug-In . SVG Version: 6.00 Build 0)  -->
<svg version="1.1" id="Warstwa_1" xmlns="http://www.w3.org/2000/svg" xmlns:xlink="http://www.w3.org/1999/xlink" x="0px" y="0px"
	 viewBox="0 0 42 53" enable-background="new 0 0 252 53" xml:space="preserve">
<g>
	<!-- <polygon fill="#929497" points="160.3,45.9 160.3,48.9 157.5,48.9 157.5,45.9 156.8,45.9 156.8,52.9 157.5,52.9 157.5,49.6 
		160.3,49.6 160.3,52.9 161,52.9 161,45.9 	"/>
	<rect x="162.2" y="45.9" fill="#929497" width="0.7" height="7.1"/>
	<rect x="163.9" y="50.1" fill="#929497" width="2.1" height="0.6"/> -->
	<g>
		<defs>
			<rect id="SVGID_1_" x="0.7" width="50.5" height="53"/>
		</defs>
		<clipPath id="SVGID_2_">
			<use xlink:href="#SVGID_1_"  overflow="visible"/>
		</clipPath>
		
		<polygon clip-path="url(#SVGID_2_)" fill="#BBBDBF" points="25.3,18.5 20.1,22 15,18.5 15,11.6 20.1,8.1 25.3,11.6 		"/>
		<polygon clip-path="url(#SVGID_2_)" fill="#BBBDBF" points="25.3,39.9 20.1,43.4 15,39.9 15,33 20.1,29.5 25.3,33 		"/>
		<polygon clip-path="url(#SVGID_2_)" fill="#BBBDBF" points="11.1,29.5 5.9,33 0.7,29.5 0.7,22.6 5.9,19.1 11.1,22.6 		"/>
		<polygon clip-path="url(#SVGID_2_)" fill="#EC1C24" points="38.3,29.7 33.2,33.2 28,29.7 28,22.8 33.2,19.3 38.3,22.8 		"/>
		<polygon clip-path="url(#SVGID_2_)" fill="#EC1C24" points="11.1,10.5 5.9,13.9 0.7,10.5 0.7,3.5 5.9,0 11.1,3.5 		"/>
		<polygon clip-path="url(#SVGID_2_)" fill="#EC1C24" points="11.1,48.6 5.9,52.1 0.7,48.6 0.7,41.6 5.9,38.1 11.1,41.6 		"/>
	</g>
</g>
</svg>
